<svg xmlns="http://www.w3.org/2000/svg" xmlns:xlink="http://www.w3.org/1999/xlink" viewBox="524 691 89 222"><g xmlns="http://www.w3.org/2000/svg" id="_x34_">
    <g>
      <path d="M550.56,697.55c-2.54,40.08-10.57,79.57-23.73,117.5-1.04,3,1.64,5.44,4.34,5.7,27.35,2.55,50.91-14.21,76.48-20.7,5.61-1.42,3.23-10.11-2.39-8.68-24.68,6.27-47.74,22.83-74.09,20.38l4.34,5.7c13.42-38.68,21.46-79.03,24.05-119.89.37-5.78-8.64-5.76-9,0h0Z"/>
      <path d="M579.89,750.85c-12.6,52.09-27.73,103.53-45.34,154.15-1.91,5.48,6.78,7.84,8.68,2.39,17.6-50.62,32.73-102.06,45.34-154.15,1.36-5.63-7.31-8.03-8.68-2.39h0Z"/>
    </g>
  </g></svg>
